<svg xmlns="http://www.w3.org/2000/svg" viewBox="0 0 960 540" fill="none" aria-hidden="true">
  <defs>
    <linearGradient id="hero-line" x1="0%" y1="0%" x2="100%" y2="100%">
      <stop offset="0%" stop-color="#22d3ee" stop-opacity="0.15" />
      <stop offset="45%" stop-color="#38bdf8" stop-opacity="0.55" />
      <stop offset="100%" stop-color="#a855f7" stop-opacity="0.2" />
    </linearGradient>
    <radialGradient id="hero-node" cx="50%" cy="50%" r="50%">
      <stop offset="0%" stop-color="#6ee7b7" stop-opacity="0.9" />
      <stop offset="100%" stop-color="#22d3ee" stop-opacity="0" />
    </radialGradient>
  </defs>
  <g stroke="url(#hero-line)" stroke-width="1.25" stroke-linecap="round">
    <path d="M40 120 H280 L320 160 H520 L560 120 H880" />
    <path d="M80 260 H240 L300 320 H460 L520 260 H760 L820 300 H920" />
    <path d="M120 400 H360 L400 360 H640 L680 420 H900" />
    <path d="M0 0 H200 V200 L260 260 V380" />
    <path d="M480 0 V180 L540 240 V420" />
    <path d="M720 0 V220 L660 280 V460" />
    <path d="M0 0 H220 L260 40 H520 L560 0 H960" />
    <path d="M340 140 V300" />
    <path d="M600 200 V380" />
    <!-- angoli: rametti verso i bordi del viewBox -->
    <path d="M40 120 L6 24 H104 L118 58 L40 120" />
    <path d="M6 24 V108 L72 128 L118 58" />
    <path d="M880 120 L954 24 H856 L842 58 L880 120" />
    <path d="M954 24 V108 L888 128 L842 58" />
    <path d="M120 400 L6 516 H104 L90 528 L120 400" />
    <path d="M6 516 V432 L70 412 L90 528" />
    <path d="M900 420 L954 516 H856 L870 528 L900 420" />
    <path d="M954 516 V432 L890 412 L870 528" />
  </g>
  <g fill="url(#hero-node)">
    <circle cx="280" cy="120" r="3" />
    <circle cx="520" cy="160" r="2.5" />
    <circle cx="300" cy="320" r="3" />
    <circle cx="520" cy="260" r="2.5" />
    <circle cx="680" cy="420" r="3" />
    <circle cx="480" cy="120" r="2.5" />
    <circle cx="720" cy="220" r="3" />
    <circle cx="260" cy="40" r="2" />
    <circle cx="260" cy="260" r="2" />
    <circle cx="520" cy="0" r="2" />
    <circle cx="600" cy="200" r="2" />
    <circle cx="6" cy="24" r="2.5" />
    <circle cx="104" cy="24" r="2" />
    <circle cx="72" cy="128" r="2" />
    <circle cx="954" cy="24" r="2.5" />
    <circle cx="856" cy="24" r="2" />
    <circle cx="888" cy="128" r="2" />
    <circle cx="6" cy="516" r="2.5" />
    <circle cx="104" cy="516" r="2" />
    <circle cx="70" cy="412" r="2" />
    <circle cx="954" cy="516" r="2.5" />
    <circle cx="856" cy="516" r="2" />
    <circle cx="890" cy="412" r="2" />
  </g>
</svg>
